<svg width="23" height="12" viewBox="0 0 23 12" fill="none" xmlns="http://www.w3.org/2000/svg">
<path d="M21.9325 11.5411C21.629 11.8349 21.2175 12 20.7884 12C20.3593 12 19.9478 11.8349 19.6443 11.5411L11.6341 3.78308L3.62389 11.5411C3.31869 11.8266 2.90992 11.9846 2.48563 11.981C2.06134 11.9774 1.65547 11.8126 1.35543 11.522C1.0554 11.2314 0.885218 10.8383 0.881531 10.4274C0.877844 10.0165 1.04095 9.62058 1.33572 9.32499L10.49 0.458877C10.7935 0.165058 11.205 -9.79245e-07 11.6341 -9.41732e-07C12.0632 -9.04219e-07 12.4747 0.165058 12.7782 0.458878L21.9325 9.32499C22.2358 9.6189 22.4063 10.0175 22.4063 10.4331C22.4063 10.8486 22.2358 11.2472 21.9325 11.5411Z" fill="white"/>
</svg>
