<svg width="141" height="22" viewBox="0 0 141 22" fill="none" xmlns="http://www.w3.org/2000/svg">
<path d="M10.9763 18.3135C8.88448 18.3135 7.14519 17.6238 5.73495 16.1968C4.32472 14.7697 3.64311 13.0097 3.64311 10.8692C3.64311 8.72865 4.32472 6.94487 5.73495 5.54162C7.12169 4.1146 8.88448 3.40108 10.9763 3.40108C13.2562 3.40108 15.16 4.23351 16.6643 5.96973L19.2027 3.78162C17.0403 1.28432 14.2904 0.0237816 10.9998 0.0237816C7.94432 0.0237816 5.31188 1.04648 3.17303 3.11567C1.05767 5.18486 0 7.7773 0 10.893C0 13.9849 1.08118 16.5773 3.17303 18.6703C5.31188 20.7157 7.92082 21.7384 10.9998 21.7384C14.2434 21.7384 17.2049 20.3114 19.2262 17.9092L16.7348 15.7211C15.254 17.4335 13.3267 18.3135 10.9763 18.3135Z" fill="black"/>
<path d="M137.098 18.5514C137.098 18.1946 137.38 17.8854 137.756 17.8854C138.133 17.8854 138.415 18.1708 138.415 18.5514C138.415 18.9081 138.133 19.2173 137.756 19.2173C137.404 19.1935 137.098 18.9081 137.098 18.5514ZM135.97 17.8616L134.278 18.3135C134.278 18.4562 134.278 18.6227 134.278 18.7654L135.97 19.2173C136.111 19.2649 136.158 19.4076 136.111 19.5265L135.43 21.1438C135.547 21.2389 135.665 21.3341 135.782 21.4292L137.192 20.3827C137.286 20.3114 137.427 20.3351 137.498 20.4303C137.498 20.4303 137.498 20.4541 137.521 20.4541L138.344 22C138.415 22 138.485 21.9762 138.556 21.9524C138.626 21.9287 138.697 21.9049 138.767 21.8811L138.838 20.1211C138.838 20.0022 138.955 19.907 139.073 19.907H139.096L140.812 20.24C140.882 20.0973 140.953 19.9784 141 19.8357L139.684 18.6703C139.59 18.5989 139.59 18.4562 139.66 18.3611L139.684 18.3373L141 17.1957C140.953 17.053 140.882 16.9103 140.812 16.7914L139.096 17.1243C138.979 17.1481 138.861 17.0768 138.838 16.9578V16.9341L138.767 15.1741C138.626 15.1265 138.485 15.1027 138.321 15.0789L137.498 16.6249C137.451 16.7438 137.31 16.7676 137.192 16.72C137.192 16.72 137.169 16.72 137.169 16.6962L135.759 15.6497C135.641 15.7449 135.524 15.84 135.406 15.9351L136.088 17.5524C136.135 17.6714 136.088 17.7903 135.97 17.8378C135.994 17.8378 135.97 17.8616 135.97 17.8616Z" fill="black"/>
<path d="M37.6298 16.2443C36.243 17.6476 34.5037 18.3849 32.4589 18.3849C30.4141 18.3849 28.6513 17.6714 27.2645 16.2443C25.8778 14.8173 25.1727 13.0573 25.1727 10.9168C25.1727 8.8 25.8543 7.04 27.2645 5.58919C28.6513 4.13838 30.4141 3.42486 32.4589 3.42486C34.5037 3.42486 36.243 4.13838 37.6298 5.58919C39.0165 7.04 39.7451 8.8 39.7451 10.9168C39.7451 13.0097 39.0165 14.7935 37.6298 16.2443ZM32.4589 0C29.4034 0 26.818 1.04649 24.7026 3.16324C22.5873 5.23243 21.5296 7.82487 21.5296 10.893C21.5296 13.9611 22.6108 16.5535 24.7026 18.6227C26.7945 20.6919 29.4034 21.7622 32.4589 21.7622C35.5144 21.7622 38.1469 20.7157 40.2387 18.6227C42.3541 16.5535 43.4117 13.9611 43.4117 10.893C43.4117 7.82487 42.3305 5.23243 40.1917 3.16324C38.0998 1.07027 35.5144 0 32.4589 0Z" fill="black"/>
<path d="M65.6699 14.8411L61.0397 0.570809H57.7961L53.1659 14.8411L48.2065 0.570809H44.3284L51.4501 21.2151H54.7876L59.3944 7.01621L63.9777 21.2151H67.3622L74.4839 0.570809H70.6293L65.6699 14.8411ZM86.0713 17.8854H81.8406V12.0108H86.0478C87.9752 12.0108 89.3854 13.2476 89.3854 14.9124C89.3619 16.6249 87.9752 17.8854 86.0713 17.8854ZM81.8406 3.94811H85.2017C86.7765 3.94811 87.9046 4.9946 87.9046 6.37406C87.9046 7.89622 86.7765 8.91892 85.1782 8.91892H81.8406V3.94811ZM88.8918 10.013C90.5841 9.39459 91.5948 7.84865 91.5948 5.8746C91.5948 4.35243 91.0307 3.09189 89.879 2.11676C88.7508 1.11784 87.3641 0.594595 85.6953 0.594595H78.0565V21.2389H86.7294C88.5863 21.2389 90.0905 20.6681 91.3127 19.5265C92.5584 18.3611 93.1695 16.8865 93.1695 15.1503C93.1225 12.5103 91.5948 10.4886 88.8918 10.013Z" fill="black"/>
<path d="M112.09 16.2443C110.703 17.6476 108.964 18.3849 106.919 18.3849C104.874 18.3849 103.112 17.6714 101.725 16.2443C100.338 14.8173 99.6331 13.0573 99.6331 10.9168C99.6331 8.8 100.315 7.04 101.725 5.58919C103.112 4.13838 104.874 3.42486 106.919 3.42486C108.964 3.42486 110.703 4.13838 112.09 5.58919C113.477 7.04 114.206 8.8 114.206 10.9168C114.206 13.0097 113.477 14.7935 112.09 16.2443ZM106.919 0C103.864 0 101.278 1.04649 99.163 3.16324C97.0477 5.23243 95.99 7.82487 95.99 10.893C95.99 13.9611 97.0712 16.5535 99.163 18.6227C101.278 20.6919 103.864 21.7622 106.919 21.7622C109.975 21.7622 112.607 20.7157 114.699 18.6227C116.814 16.5535 117.872 13.9611 117.872 10.893C117.872 7.82487 116.791 5.23243 114.652 3.16324C112.56 1.07027 109.975 0 106.919 0Z" fill="black"/>
<path d="M134.231 0.594595L128.167 10.7741L122.079 0.594595H117.99L126.099 14.0562L121.821 21.2627H125.981L138.415 0.618376H134.231V0.594595Z" fill="black"/>
</svg>
