<svg width="141" height="22" fill="none" xmlns="http://www.w3.org/2000/svg"><path d="M10.976 18.314c-2.092 0-3.83-.69-5.241-2.117-1.41-1.427-2.092-3.187-2.092-5.328 0-2.14.682-3.924 2.092-5.327 1.387-1.427 3.15-2.14 5.241-2.14 2.28 0 4.184.832 5.688 2.568l2.539-2.188C17.04 1.284 14.29.024 11 .024c-3.056 0-5.688 1.022-7.827 3.092C1.058 5.185 0 7.777 0 10.893c0 3.092 1.081 5.684 3.173 7.777 2.139 2.046 4.748 3.068 7.827 3.068 3.243 0 6.205-1.427 8.226-3.829l-2.491-2.188c-1.481 1.712-3.408 2.593-5.759 2.593zm126.122.237a.66.66 0 01.658-.666c.377 0 .659.286.659.666a.661.661 0 01-.659.666c-.352-.023-.658-.309-.658-.666zm-1.128-.69l-1.692.453v.451l1.692.452a.23.23 0 01.141.31l-.681 1.617.352.285 1.41-1.046a.222.222 0 01.306.047s0 .024.023.024l.823 1.546c.071 0 .141-.024.212-.048l.211-.07.071-1.76c0-.12.117-.215.235-.215h.023l1.716.333c.07-.143.141-.262.188-.404l-1.316-1.166c-.094-.071-.094-.214-.024-.309l.024-.024L141 17.196a2.15 2.15 0 00-.188-.405l-1.716.333a.216.216 0 01-.258-.166v-.024l-.071-1.76a2.472 2.472 0 00-.446-.095l-.823 1.546c-.047.119-.188.143-.306.095 0 0-.023 0-.023-.024l-1.41-1.046-.353.285.682 1.617c.047.12 0 .238-.118.286.024 0 0 .024 0 .024zm-98.34-1.617c-1.387 1.404-3.126 2.14-5.171 2.14-2.045 0-3.808-.713-5.195-2.14-1.386-1.427-2.091-3.187-2.091-5.327 0-2.117.681-3.877 2.092-5.328 1.386-1.45 3.15-2.164 5.194-2.164 2.045 0 3.784.713 5.17 2.164 1.388 1.451 2.116 3.211 2.116 5.328 0 2.093-.728 3.877-2.115 5.327zM32.459 0c-3.056 0-5.641 1.046-7.756 3.163-2.116 2.07-3.173 4.662-3.173 7.73 0 3.068 1.08 5.66 3.173 7.73 2.091 2.069 4.7 3.14 7.756 3.14 3.055 0 5.688-1.047 7.78-3.14 2.115-2.07 3.173-4.662 3.173-7.73 0-3.068-1.081-5.66-3.22-7.73C38.1 1.07 35.514 0 32.459 0zM65.67 14.841L61.04.571h-3.244l-4.63 14.27-4.96-14.27h-3.878l7.122 20.644h3.338l4.606-14.199 4.584 14.2h3.384L74.484.57h-3.855l-4.96 14.27zm20.401 3.044h-4.23v-5.874h4.207c1.927 0 3.337 1.237 3.337 2.901-.023 1.713-1.41 2.973-3.314 2.973zm-4.23-13.937h3.36c1.576 0 2.704 1.047 2.704 2.426 0 1.522-1.129 2.545-2.727 2.545h-3.337v-4.97zm7.05 6.065c1.693-.618 2.704-2.164 2.704-4.138 0-1.523-.564-2.783-1.716-3.758-1.128-1-2.515-1.522-4.184-1.522h-7.638v20.644h8.672c1.857 0 3.362-.57 4.584-1.713 1.245-1.165 1.856-2.64 1.856-4.376-.046-2.64-1.574-4.661-4.277-5.137zm23.199 6.231c-1.387 1.404-3.126 2.14-5.171 2.14-2.045 0-3.807-.713-5.194-2.14s-2.092-3.187-2.092-5.327c0-2.117.682-3.877 2.092-5.328 1.387-1.45 3.149-2.164 5.194-2.164s3.784.713 5.171 2.164c1.387 1.451 2.116 3.211 2.116 5.328 0 2.093-.729 3.877-2.116 5.327zM106.919 0c-3.055 0-5.641 1.046-7.756 3.163-2.115 2.07-3.173 4.662-3.173 7.73 0 3.068 1.081 5.66 3.173 7.73 2.115 2.069 4.701 3.14 7.756 3.14 3.056 0 5.688-1.047 7.78-3.14 2.115-2.07 3.173-4.662 3.173-7.73 0-3.068-1.081-5.66-3.22-7.73C112.56 1.07 109.975 0 106.919 0zm27.312.595l-6.064 10.18-6.088-10.18h-4.089l8.109 13.461-4.278 7.207h4.16L138.415.618h-4.184V.595z" fill="#000"/></svg>